<svg width="271" height="45" viewBox="0 0 271 45" fill="none" xmlns="http://www.w3.org/2000/svg">
<path d="M0 20.722C0.434057 18.8471 0.70041 16.9139 1.31204 15.0875C3.05785 9.91714 6.68645 5.56672 11.4977 2.87576C16.3089 0.184808 21.9617 -0.655966 27.3653 0.515681C30.4669 1.11067 33.4034 2.35209 35.9777 4.15663C38.552 5.96117 40.7046 8.28708 42.291 10.9783C42.4192 11.1823 42.5376 11.4057 42.6461 11.6194C42.6461 11.668 42.6461 11.736 42.6461 11.8817C40.2292 11.8817 37.8123 11.8817 35.3954 11.8817C35.0797 11.8817 34.7246 11.4834 34.4681 11.2114C32.4528 8.9137 29.8146 7.22886 26.8622 6.35414C23.0463 5.39436 19.0065 5.82786 15.4901 7.57446C11.9736 9.32106 9.21844 12.2626 7.7341 15.855C4.10381 24.3552 8.43452 34.8761 17.1453 38.1985C23.3503 40.5397 28.9141 39.0145 33.6394 34.507C33.9637 34.1541 34.3643 33.8775 34.8116 33.6976C35.259 33.5177 35.7417 33.4391 36.224 33.4675C38.2759 33.5452 40.3278 33.4675 42.5277 33.4675C41.1884 35.8756 39.4053 38.0169 37.2697 39.782C24.5439 50.1183 5.1199 44.6393 0.601761 27.4056C0.345273 26.4342 0.217028 25.4627 0.0197298 24.433L0 20.722Z" fill="#21976E"/>
<path d="M115.291 0.875467H121.693V44.1442C119.612 44.1442 117.53 44.1442 115.449 44.1442C115.182 44.1442 114.867 43.7459 114.689 43.4642C109.428 35.3752 104.166 27.2797 98.9051 19.1777C97.2675 16.6455 95.6233 14.11 93.9726 11.5712C93.8148 11.3283 93.6372 11.0952 93.3215 10.658V44.0762H86.9093V0.826895C89.1092 0.826895 91.2893 0.826895 93.4596 0.826895C93.7556 0.826895 94.1008 1.23491 94.2981 1.54577C100.809 11.5518 107.313 21.561 113.811 31.5735C114.246 32.262 114.741 32.9121 115.291 33.5164V0.875467Z" fill="#21976E"/>
<path d="M165.495 44.1442C163.364 44.1442 161.342 44.1442 159.319 44.1442C159.023 44.1442 158.649 43.7653 158.461 43.4642C153.621 36.0552 148.794 28.6332 143.979 21.1984L137.784 11.6586L137.084 10.6095V44.0762H130.721V0.826895C132.941 0.826895 135.15 0.826895 137.35 0.826895C137.607 0.826895 137.913 1.24462 138.1 1.53606C144.262 10.9981 150.395 20.4536 156.498 29.9026C157.296 31.1866 158.176 32.4195 159.132 33.5942V0.885182H165.495V44.1442Z" fill="#21976E"/>
<path d="M42.5284 44.144C43.5149 41.6668 44.3929 39.2868 45.2906 36.965C49.8087 25.2427 54.3235 13.5108 58.8351 1.76907C59.1015 1.07934 59.4073 0.797616 60.2162 0.797616C61.4943 0.870465 62.7756 0.870465 64.0537 0.797616C64.3396 0.752 64.6322 0.817749 64.8698 0.98094C65.1073 1.14413 65.271 1.39195 65.3262 1.67193C69.3117 12.0924 73.3037 22.5097 77.3023 32.9237C78.7327 36.6152 80.1532 40.3068 81.633 44.144C79.4035 44.144 77.2628 44.144 75.1418 44.144C74.9149 44.144 74.6289 43.6777 74.5105 43.3766C73.0702 39.6559 71.6299 35.9255 70.239 32.1854C70.1887 31.9371 70.042 31.718 69.8301 31.5747C69.6182 31.4313 69.3579 31.3751 69.1045 31.418C64.3891 31.418 59.6769 31.418 54.9681 31.418C54.7147 31.3751 54.4544 31.4313 54.2425 31.5747C54.0306 31.718 53.8839 31.9371 53.8336 32.1854C52.4525 35.8964 50.9925 39.5879 49.6213 43.3086C49.5594 43.5994 49.3843 43.8548 49.1335 44.02C48.8827 44.1852 48.5762 44.2472 48.2796 44.1926C46.4349 44.1149 44.5704 44.144 42.5284 44.144ZM67.7431 25.5309C65.8787 20.013 64.0537 14.5826 62.2188 9.14244H62.0215C60.1669 14.602 58.3221 20.0713 56.4478 25.5309H67.7431Z" fill="#21976E"/>
<path d="M245.588 33.4484C243.137 37.7981 239.287 41.2214 234.643 43.1789C229.999 45.1365 224.826 45.517 219.939 44.2607C214.988 42.8506 210.65 39.8664 207.602 35.7735C204.554 31.6807 202.967 26.7095 203.09 21.6355C203.455 11.3283 211.11 2.28404 221.063 0.457701C231.323 -1.43664 241.296 3.14864 245.726 11.8043C245.491 11.843 245.254 11.869 245.016 11.882C243.043 11.882 241.07 11.882 239.097 11.882C238.777 11.906 238.457 11.8531 238.163 11.7279C237.869 11.6026 237.611 11.4088 237.41 11.1632C235.238 8.63042 232.287 6.86379 229.005 6.13101C225.284 5.4063 221.422 5.97938 218.083 7.75192C214.744 9.52447 212.136 12.386 210.705 15.8456C207.085 24.3556 211.416 34.8667 220.126 38.1308C226.331 40.4623 231.895 38.9468 236.611 34.4393C236.937 34.0868 237.34 33.8106 237.789 33.6307C238.237 33.4509 238.721 33.372 239.205 33.3998C241.365 33.497 243.417 33.4484 245.588 33.4484Z" fill="#21976E"/>
<path d="M271 0.884915C271 2.6724 271 4.39188 271 6.10164C271 6.66509 270.635 6.64566 270.24 6.64566H262.565V44.1148H256.153V6.63594H247.739V0.884915H271Z" fill="#21976E"/>
<path d="M200.012 6.60682V0.894653H170.733V6.60682H200.012Z" fill="#21976E"/>
<path d="M170.733 38.393V44.076H199.992V38.393H170.733Z" fill="#21976E"/>
<path d="M170.733 25.1134H194.261V19.4207H170.733V25.1134Z" fill="#21976E"/>
</svg>
